<svg width="17" height="17" viewBox="0 0 17 17" fill="none" xmlns="http://www.w3.org/2000/svg">
<path fill-rule="evenodd" clip-rule="evenodd" d="M3 0C3.13261 0 3.25979 0.0526784 3.35355 0.146447C3.44732 0.240215 3.5 0.367392 3.5 0.5V13.5H16.5C16.6326 13.5 16.7598 13.5527 16.8536 13.6464C16.9473 13.7402 17 13.8674 17 14C17 14.1326 16.9473 14.2598 16.8536 14.3536C16.7598 14.4473 16.6326 14.5 16.5 14.5H3C2.86739 14.5 2.74021 14.4473 2.64645 14.3536C2.55268 14.2598 2.5 14.1326 2.5 14V0.5C2.5 0.367392 2.55268 0.240215 2.64645 0.146447C2.74021 0.0526784 2.86739 0 3 0Z" fill="white"/>
<path fill-rule="evenodd" clip-rule="evenodd" d="M0 3C0 2.86739 0.0526784 2.74021 0.146447 2.64645C0.240215 2.55268 0.367392 2.5 0.5 2.5H3C3.13261 2.5 3.25979 2.55268 3.35355 2.64645C3.44732 2.74021 3.5 2.86739 3.5 3C3.5 3.13261 3.44732 3.25979 3.35355 3.35355C3.25979 3.44732 3.13261 3.5 3 3.5H0.5C0.367392 3.5 0.240215 3.44732 0.146447 3.35355C0.0526784 3.25979 0 3.13261 0 3ZM5.5 3C5.5 2.86739 5.55268 2.74021 5.64645 2.64645C5.74021 2.55268 5.86739 2.5 6 2.5H14C14.1326 2.5 14.2598 2.55268 14.3536 2.64645C14.4473 2.74021 14.5 2.86739 14.5 3V11C14.5 11.1326 14.4473 11.2598 14.3536 11.3536C14.2598 11.4473 14.1326 11.5 14 11.5C13.8674 11.5 13.7402 11.4473 13.6464 11.3536C13.5527 11.2598 13.5 11.1326 13.5 11V3.5H6C5.86739 3.5 5.74021 3.44732 5.64645 3.35355C5.55268 3.25979 5.5 3.13261 5.5 3ZM14 13.5C14.1326 13.5 14.2598 13.5527 14.3536 13.6464C14.4473 13.7402 14.5 13.8674 14.5 14V16.5C14.5 16.6326 14.4473 16.7598 14.3536 16.8536C14.2598 16.9473 14.1326 17 14 17C13.8674 17 13.7402 16.9473 13.6464 16.8536C13.5527 16.7598 13.5 16.6326 13.5 16.5V14C13.5 13.8674 13.5527 13.7402 13.6464 13.6464C13.7402 13.5527 13.8674 13.5 14 13.5Z" fill="white"/>
</svg>
