<svg width="123" height="122" viewBox="0 0 123 122" fill="none" xmlns="http://www.w3.org/2000/svg">
<path d="M61.4723 6.7478C50.7956 6.7478 40.3587 9.91381 31.4813 15.8455C22.604 21.7771 15.685 30.208 11.5992 40.0719C7.51338 49.9359 6.44435 60.7899 8.52727 71.2615C10.6102 81.733 15.7515 91.3517 23.3011 98.9013C30.8506 106.451 40.4693 111.592 50.9409 113.675C61.4124 115.758 72.2664 114.689 82.1304 110.603C91.9944 106.517 100.425 99.5983 106.357 90.721C112.289 81.8437 115.455 71.4067 115.455 60.7301C115.455 46.4131 109.767 32.6825 99.6435 22.5588C89.5199 12.4352 75.7893 6.7478 61.4723 6.7478ZM61.4723 107.965C52.1302 107.965 42.9979 105.194 35.2302 100.004C27.4625 94.8139 21.4084 87.4369 17.8333 78.8059C14.2582 70.1749 13.3228 60.6777 15.1454 51.5151C16.9679 42.3525 21.4666 33.9361 28.0725 27.3302C34.6783 20.7244 43.0947 16.2257 52.2573 14.4032C61.4199 12.5806 70.9172 13.516 79.5481 17.0911C88.1791 20.6662 95.5561 26.7203 100.746 34.488C105.937 42.2557 108.707 51.388 108.707 60.7301C108.707 73.2574 103.73 85.2717 94.8721 94.1299C86.0139 102.988 73.9996 107.965 61.4723 107.965Z" fill="#D0D0D0"/>
<path d="M85.6296 54.2521C88.9837 54.2521 91.7026 51.5331 91.7026 48.1791C91.7026 44.8251 88.9837 42.1061 85.6296 42.1061C82.2756 42.1061 79.5566 44.8251 79.5566 48.1791C79.5566 51.5331 82.2756 54.2521 85.6296 54.2521Z" fill="#D0D0D0"/>
<path d="M39.2385 54.2521C42.5926 54.2521 45.3115 51.5331 45.3115 48.1791C45.3115 44.8251 42.5926 42.1061 39.2385 42.1061C35.8845 42.1061 33.1655 44.8251 33.1655 48.1791C33.1655 51.5331 35.8845 54.2521 39.2385 54.2521Z" fill="#D0D0D0"/>
<path d="M62.0123 67.4778C57.1721 67.4786 52.4022 68.6365 48.1003 70.855C43.7983 73.0734 40.0891 76.2881 37.2817 80.2311C36.7627 80.9604 36.5547 81.8659 36.7034 82.7486C36.8521 83.6312 37.3453 84.4187 38.0746 84.9377C38.8039 85.4567 39.7094 85.6647 40.5921 85.516C41.4747 85.3673 42.2622 84.8741 42.7812 84.1448C44.9384 81.1148 47.7809 78.6371 51.077 76.9136C54.3731 75.19 58.0297 74.2694 61.749 74.2267C65.4683 74.1839 69.1451 75.0202 72.48 76.6675C75.8149 78.3148 78.7135 80.7265 80.9399 83.7062C81.4767 84.4221 82.276 84.8953 83.1618 85.0218C84.0477 85.1484 84.9475 84.9179 85.6633 84.381C86.3792 83.8441 86.8524 83.0448 86.979 82.159C87.1055 81.2732 86.875 80.3734 86.3381 79.6575C83.5098 75.8755 79.8383 72.8054 75.6155 70.691C71.3927 68.5767 66.7349 67.4765 62.0123 67.4778Z" fill="#D0D0D0"/>
</svg>
